<svg preserveAspectRatio="none" overflow="visible" style="display: block;" width="20" height="20" viewBox="0 0 20 20" fill="none" xmlns="http://www.w3.org/2000/svg">
<g id="Frame">
<path id="Vector" d="M6.39271 3C7.07535 3 7.73611 3.14583 8.375 3.4375C9.01389 3.72917 9.55556 4.13889 10 4.66667C10.4444 4.13889 10.9861 3.72917 11.625 3.4375C12.2639 3.14583 12.9247 3 13.6073 3C14.8413 3 15.8819 3.42361 16.7292 4.27083C17.5764 5.11806 18 6.16146 18 7.40104V7.60417C18 7.67361 17.9931 7.74306 17.9792 7.8125H16.4792C16.4931 7.74389 16.5 7.67528 16.5 7.60667V7.40104C16.5 6.57812 16.2222 5.88889 15.6667 5.33333C15.1111 4.77778 14.4236 4.5 13.6042 4.5C13.1181 4.5 12.6632 4.60069 12.2396 4.80208C11.816 5.00347 11.4514 5.28472 11.1458 5.64583L10.4167 6.5H9.58333L8.85417 5.64583C8.53472 5.29861 8.15972 5.02083 7.72917 4.8125C7.29861 4.60417 6.85417 4.5 6.39583 4.5C5.57639 4.5 4.88889 4.77778 4.33333 5.33333C3.77778 5.88889 3.5 6.57694 3.5 7.3975V7.57292C3.5 7.62153 3.50694 7.68056 3.52083 7.75H2.02083C2.02083 7.68056 2.01736 7.62153 2.01042 7.57292C2.00347 7.52431 2 7.46701 2 7.40104C2 6.16146 2.42361 5.11806 3.27083 4.27083C4.11806 3.42361 5.15868 3 6.39271 3ZM4.41667 12.2292H6.52083C6.96528 12.6736 7.47222 13.1597 8.04167 13.6875C8.61111 14.2153 9.26389 14.8125 10 15.4792C10.7222 14.8264 11.3715 14.2361 11.9479 13.7083C12.5243 13.1806 13.0347 12.6944 13.4792 12.25H15.5625C15.0347 12.8333 14.3958 13.4757 13.6458 14.1771C12.8958 14.8785 12.0139 15.6875 11 16.6042L10 17.5L8.95833 16.5625C7.94444 15.6458 7.06597 14.8403 6.32292 14.1458C5.57986 13.4514 4.94444 12.8125 4.41667 12.2292ZM9.02521 13C9.17632 13 9.30715 12.9618 9.41771 12.8854C9.52812 12.809 9.61111 12.7014 9.66667 12.5625L11.125 9.3125L11.8542 10.4319C11.9236 10.5467 12.0142 10.6319 12.1258 10.6875C12.2374 10.7431 12.3551 10.7708 12.4792 10.7708H19V9.27083H12.8542L11.6002 7.34062C11.5274 7.22701 11.4335 7.14188 11.3185 7.08521C11.2034 7.0284 11.0837 7 10.9594 7C10.8124 7 10.6852 7.04167 10.5777 7.125C10.4703 7.20833 10.3819 7.31944 10.3125 7.45833L8.85417 10.7292L8.10417 9.58333C8.03472 9.47222 7.94417 9.38889 7.8325 9.33333C7.72097 9.27778 7.60319 9.25 7.47917 9.25H1V10.75H7.125L8.37083 12.6835C8.44306 12.7973 8.53819 12.8785 8.65625 12.9271C8.77431 12.9757 8.89729 13 9.02521 13Z" fill="#0F2E70"/>
</g>
</svg>
