<svg width="16" height="16" viewBox="0 0 16 16" fill="none" xmlns="http://www.w3.org/2000/svg">
<path d="M3.6 12.4H12.4V6.5L9.5 3.6H3.6V12.4ZM3.6 13.6C3.27 13.6 2.9875 13.4825 2.7525 13.2475C2.5175 13.0125 2.4 12.73 2.4 12.4V3.6C2.4 3.27 2.5175 2.9875 2.7525 2.7525C2.9875 2.5175 3.27 2.4 3.6 2.4H10L13.6 6V12.4C13.6 12.73 13.4825 13.0125 13.2475 13.2475C13.0125 13.4825 12.73 13.6 12.4 13.6H3.6ZM4.8 11.2H11.2V10H4.8V11.2ZM4.8 8.8H11.2V7.6H4.8V8.8ZM4.8 6.4H9.6V5.2H4.8V6.4Z" fill="currentColor"/>
</svg>
