<svg width="16" height="16" viewBox="0 0 16 16" fill="none" xmlns="http://www.w3.org/2000/svg">
  <path d="M4.80807 13.736C4.53607 13.736 4.31207 13.648 4.13607 13.464C3.96007 13.288 3.87207 13.056 3.87207 12.792V3.20801C3.87207 2.93601 3.96007 2.71201 4.14407 2.53601C4.32007 2.36001 4.55207 2.26401 4.81607 2.26401H9.93607L12.1361 4.46401V12.784C12.1361 13.056 12.0481 13.28 11.8641 13.456C11.6801 13.632 11.4561 13.728 11.1921 13.728H4.80807V13.736Z" fill="#155DFC"/>
  <path d="M9.46387 4.936V2.8H4.80787C4.70387 2.8 4.60787 2.84 4.52787 2.928C4.43987 3.016 4.39987 3.104 4.39987 3.208V12.784C4.39987 12.888 4.43987 12.984 4.52787 13.064C4.61587 13.152 4.70387 13.192 4.80787 13.192H11.1839C11.2879 13.192 11.3839 13.152 11.4639 13.064C11.5519 12.976 11.5919 12.888 11.5919 12.784V4.936H9.45587H9.46387Z" fill="white"/>
  <path d="M5.75183 10.6C5.61583 10.6 5.49583 10.552 5.39983 10.456C5.30383 10.36 5.25583 10.24 5.25583 10.104C5.25583 9.968 5.30383 9.848 5.39983 9.752C5.49583 9.656 5.61583 9.608 5.75183 9.608C5.88783 9.608 6.00783 9.656 6.10383 9.752C6.19983 9.848 6.24783 9.968 6.24783 10.104C6.24783 10.24 6.19983 10.36 6.10383 10.456C6.00783 10.552 5.88783 10.6 5.75183 10.6ZM7.24783 10.6C7.11183 10.6 6.99183 10.552 6.89583 10.456C6.79983 10.36 6.75183 10.24 6.75183 10.104C6.75183 9.968 6.79983 9.848 6.89583 9.752C6.99183 9.656 7.11183 9.608 7.24783 9.608C7.38383 9.608 7.50383 9.656 7.59983 9.752C7.69583 9.848 7.74383 9.968 7.74383 10.104C7.74383 10.24 7.69583 10.36 7.59983 10.456C7.50383 10.552 7.38383 10.6 7.24783 10.6ZM8.75183 10.6C8.61583 10.6 8.49583 10.552 8.39983 10.456C8.30383 10.36 8.25583 10.24 8.25583 10.104C8.25583 9.968 8.30383 9.848 8.39983 9.752C8.49583 9.656 8.61583 9.608 8.75183 9.608C8.88783 9.608 9.00783 9.656 9.10383 9.752C9.19983 9.848 9.24783 9.968 9.24783 10.104C9.24783 10.24 9.19983 10.36 9.10383 10.456C9.00783 10.552 8.88783 10.6 8.75183 10.6Z" fill="#155DFC"/>
</svg>